<svg width="45" height="51" viewBox="0 0 45 51" fill="none" xmlns="http://www.w3.org/2000/svg">
<path d="M10.2681 17.8638C5.05337 17.8638 0.811767 22.5716 0.811757 28.3601C0.816434 30.0334 1.2705 31.6475 1.96272 33.1291L0.188781 42.5061C-0.642074 46.0183 1.34401 49.8936 4.6837 50.627C7.80375 51.4306 10.9041 49.2889 11.7487 45.7184L13.5339 39.4953C14.2099 39.889 14.8754 40.3475 15.6486 40.3478C16.8592 40.3462 17.9805 39.7684 18.8557 38.8563H25.0882C25.9627 39.7673 27.0804 40.3452 28.2897 40.3478C28.2907 40.3478 28.2916 40.3478 28.2926 40.3478C29.3743 40.3464 30.3585 39.8426 31.1923 39.1044L33.0892 45.7184C33.934 49.2894 37.0369 51.4306 40.157 50.627C43.4968 49.8936 45.4799 46.0178 44.6492 42.5061L42.8529 33.0082C43.505 31.556 43.9366 29.9838 43.9368 28.3572C43.9368 22.5687 39.6924 17.8607 34.4776 17.8607C32.7892 17.8607 31.1463 18.4019 29.695 19.3524H15.0425C13.5937 18.4036 11.9565 17.8645 10.271 17.8607C10.2701 17.8607 10.2691 17.8607 10.2682 17.8607L10.2681 17.8638ZM10.2681 19.4514C11.7767 19.4514 13.2519 19.9296 14.5284 20.822C14.6431 20.9016 14.7758 20.9433 14.9111 20.9425H29.829C29.9633 20.9427 30.095 20.901 30.2089 20.822C31.4875 19.9282 32.9666 19.4533 34.4776 19.4514C38.9193 19.4514 42.5064 23.4296 42.5064 28.3601C42.5063 29.8669 42.16 31.3513 41.5035 32.6702C41.4213 32.8366 41.3955 33.0302 41.4309 33.2159L43.2579 42.8718C43.2604 42.8851 43.2632 42.8984 43.2663 42.9116C43.8878 45.5388 42.3664 48.5343 39.8693 49.076C39.8609 49.0758 39.8525 49.0758 39.8442 49.076C37.4559 49.698 35.1421 48.1323 34.4748 45.3116C34.4714 45.2993 34.4677 45.287 34.4637 45.275L32.3266 37.8175C32.2804 37.6572 32.1894 37.5173 32.0669 37.4181C31.9444 37.3189 31.7966 37.2655 31.6449 37.2656H31.2929C31.1927 37.2658 31.0937 37.2893 31.0023 37.3348C30.9109 37.3802 30.829 37.4464 30.7621 37.5291C30.1336 38.3091 29.2353 38.755 28.2926 38.7571C27.3497 38.7571 26.4544 38.3091 25.8258 37.5291C25.7586 37.446 25.6763 37.3796 25.5844 37.3342C25.4924 37.2887 25.3929 37.2654 25.2922 37.2656H18.6518C18.5512 37.2654 18.4516 37.2887 18.3597 37.3342C18.2677 37.3796 18.1855 37.446 18.1183 37.5291C17.4892 38.3098 16.5924 38.7558 15.6487 38.7571C14.8712 38.7568 14.1196 38.4545 13.5228 37.9012C13.4327 37.8178 13.3255 37.7602 13.2107 37.7336C13.0958 37.707 12.9769 37.7123 12.8643 37.7487C12.7517 37.7852 12.6489 37.8518 12.5649 37.9427C12.481 38.0337 12.4185 38.1462 12.383 38.2702L10.3744 45.275C10.3713 45.2871 10.3685 45.2994 10.366 45.3116C9.69857 48.1328 7.38506 49.698 4.99666 49.076C4.98828 49.0758 4.9799 49.0758 4.97152 49.076C2.47428 48.5349 0.950239 45.5389 1.57162 42.9122C1.57472 42.899 1.57751 42.8857 1.58 42.8724L3.38747 33.3283C3.42309 33.1375 3.39426 32.9387 3.30645 32.77C2.61208 31.4278 2.24642 29.9084 2.24209 28.3608C2.24209 23.4303 5.8264 19.452 10.2681 19.452V19.4514Z" fill="#373748"/>
<path fill-rule="evenodd" clip-rule="evenodd" d="M10.2563 22.3413C10.1624 22.3429 10.0697 22.365 9.98346 22.4064C9.89725 22.4478 9.81923 22.5077 9.75385 22.5826C9.68848 22.6574 9.63703 22.7459 9.60246 22.8428C9.56788 22.9398 9.55085 23.0432 9.55234 23.1475V30.6576C9.551 30.7628 9.5685 30.8672 9.60384 30.9648C9.63918 31.0624 9.69165 31.1513 9.75819 31.2263C9.82473 31.3012 9.90402 31.3607 9.99146 31.4013C10.0789 31.4419 10.1727 31.4627 10.2675 31.4627C10.3623 31.4627 10.4561 31.4419 10.5435 31.4013C10.631 31.3607 10.7103 31.3012 10.7768 31.2263C10.8434 31.1513 10.8958 31.0624 10.9312 30.9648C10.9665 30.8672 10.984 30.7628 10.9827 30.6576V23.1475C10.9842 23.0411 10.9664 22.9356 10.9305 22.837C10.8945 22.7384 10.8411 22.6489 10.7733 22.5737C10.7056 22.4984 10.6249 22.4392 10.5361 22.3992C10.4473 22.3593 10.3521 22.3396 10.2563 22.3413Z" fill="#373748"/>
<path fill-rule="evenodd" clip-rule="evenodd" d="M6.91529 26.109C6.82052 26.1075 6.72643 26.1269 6.63849 26.1661C6.55055 26.2054 6.47051 26.2636 6.40302 26.3375C6.33553 26.4113 6.28194 26.4993 6.24536 26.5964C6.20878 26.6934 6.18994 26.7976 6.18994 26.9028C6.18994 27.008 6.20878 27.1121 6.24536 27.2092C6.28194 27.3062 6.33553 27.3942 6.40302 27.4681C6.47051 27.542 6.55055 27.6002 6.63849 27.6394C6.72643 27.6786 6.82052 27.6981 6.91529 27.6966H13.62C13.7147 27.6981 13.8088 27.6786 13.8968 27.6394C13.9847 27.6002 14.0647 27.542 14.1322 27.4681C14.1997 27.3942 14.2533 27.3062 14.2899 27.2092C14.3265 27.1121 14.3453 27.008 14.3453 26.9028C14.3453 26.7976 14.3265 26.6934 14.2899 26.5964C14.2533 26.4993 14.1997 26.4113 14.1322 26.3375C14.0647 26.2636 13.9847 26.2054 13.8968 26.1661C13.8088 26.1269 13.7147 26.1075 13.62 26.109H6.91529Z" fill="#373748"/>
<path d="M35.8262 23.152C35.8262 23.5522 35.684 23.9361 35.431 24.2191C35.178 24.502 34.8349 24.6609 34.4771 24.6609C34.1193 24.6609 33.7761 24.502 33.5231 24.2191C33.2701 23.9361 33.1279 23.5522 33.1279 23.152C33.1279 22.9538 33.1628 22.7577 33.2306 22.5747C33.2984 22.3916 33.3978 22.2251 33.5231 22.0849C33.6483 21.9448 33.7971 21.8336 33.9608 21.7578C34.1244 21.682 34.2999 21.6431 34.4771 21.6431C34.6542 21.6431 34.8297 21.682 34.9934 21.7578C35.1571 21.8336 35.3058 21.9448 35.4311 22.0849C35.5564 22.2251 35.6557 22.3916 35.7235 22.5747C35.7913 22.7577 35.8262 22.9538 35.8262 23.152Z" fill="#FCD062"/>
<path d="M39.1851 26.9132C39.1851 27.3134 39.0429 27.6971 38.7899 27.9801C38.5369 28.2631 38.1938 28.4222 37.836 28.4222C37.4782 28.4222 37.135 28.2631 36.882 27.9801C36.629 27.6971 36.4868 27.3134 36.4868 26.9132C36.4868 26.7151 36.5217 26.5188 36.5895 26.3357C36.6573 26.1526 36.7567 25.9863 36.8819 25.8462C37.0072 25.706 37.156 25.5949 37.3196 25.519C37.4833 25.4432 37.6588 25.4043 37.836 25.4043C38.0131 25.4043 38.1886 25.4432 38.3523 25.519C38.5159 25.5949 38.6647 25.706 38.79 25.8462C38.9152 25.9863 39.0146 26.1526 39.0824 26.3357C39.1502 26.5188 39.1851 26.7151 39.1851 26.9132Z" fill="#78C8F0"/>
<path d="M35.8262 30.6737C35.8262 30.8719 35.7913 31.068 35.7235 31.2511C35.6557 31.4341 35.5564 31.6007 35.4311 31.7408C35.3058 31.8809 35.1571 31.9919 34.9934 32.0677C34.8297 32.1436 34.6542 32.1827 34.4771 32.1827C34.2999 32.1827 34.1244 32.1436 33.9608 32.0677C33.7971 31.9919 33.6483 31.8809 33.5231 31.7408C33.3978 31.6007 33.2984 31.4341 33.2306 31.2511C33.1628 31.068 33.1279 30.8719 33.1279 30.6737C33.1279 30.2735 33.2701 29.8896 33.5231 29.6067C33.7761 29.3237 34.1193 29.1648 34.4771 29.1648C34.8349 29.1648 35.178 29.3237 35.431 29.6067C35.684 29.8896 35.8262 30.2735 35.8262 30.6737Z" fill="#60C5B8"/>
<path d="M32.4693 26.9127C32.4693 27.1109 32.4344 27.307 32.3666 27.4901C32.2988 27.6732 32.1994 27.8397 32.0741 27.9798C31.9489 28.1199 31.8001 28.2309 31.6364 28.3067C31.4728 28.3826 31.2973 28.4217 31.1201 28.4217C30.943 28.4217 30.7675 28.3826 30.6038 28.3067C30.4401 28.2309 30.2914 28.1199 30.1661 27.9798C30.0408 27.8397 29.9415 27.6732 29.8737 27.4901C29.8059 27.307 29.771 27.1109 29.771 26.9127C29.771 26.5126 29.9132 26.1286 30.1662 25.8457C30.4192 25.5627 30.7623 25.4038 31.1201 25.4038C31.4779 25.4038 31.8211 25.5627 32.0741 25.8457C32.3271 26.1286 32.4692 26.5126 32.4693 26.9127Z" fill="#F17F53"/>
<path d="M17.6653 34.3329C17.6653 34.627 17.6131 34.9181 17.5117 35.1899C17.4104 35.4616 17.2618 35.7085 17.0744 35.9164C16.8871 36.1244 16.6647 36.2893 16.4199 36.4019C16.1751 36.5144 15.9128 36.5722 15.6478 36.5722C15.3829 36.5722 15.1205 36.5144 14.8758 36.4019C14.631 36.2893 14.4086 36.1244 14.2212 35.9164C14.0339 35.7085 13.8853 35.4616 13.7839 35.1899C13.6825 34.9181 13.6304 34.627 13.6304 34.3329C13.6304 33.739 13.8429 33.1693 14.2213 32.7493C14.5996 32.3294 15.1128 32.0935 15.6478 32.0935C16.1829 32.0935 16.696 32.3294 17.0744 32.7493C17.4527 33.1693 17.6653 33.739 17.6653 34.3329ZM30.4425 34.3329C30.4425 34.627 30.3903 34.9181 30.2889 35.1899C30.1876 35.4616 30.0389 35.7085 29.8516 35.9164C29.6643 36.1244 29.4419 36.2893 29.1971 36.4019C28.9523 36.5144 28.69 36.5722 28.425 36.5722C28.1601 36.5722 27.8977 36.5144 27.6529 36.4019C27.4082 36.2893 27.1858 36.1244 26.9984 35.9164C26.8111 35.7085 26.6625 35.4616 26.5611 35.1899C26.4597 34.9181 26.4075 34.627 26.4076 34.3329C26.4076 33.739 26.6201 33.1693 26.9985 32.7493C27.3768 32.3294 27.89 32.0935 28.425 32.0935C28.9601 32.0935 29.4732 32.3294 29.8516 32.7493C30.2299 33.1693 30.4425 33.739 30.4425 34.3329Z" fill="#576D7E"/>
<path fill-rule="evenodd" clip-rule="evenodd" d="M19.6813 28.3136C19.5866 28.3121 19.4925 28.3315 19.4045 28.3708C19.3166 28.41 19.2365 28.4682 19.1691 28.5421C19.1016 28.6159 19.048 28.7039 19.0114 28.801C18.9748 28.898 18.956 29.0022 18.956 29.1074C18.956 29.2126 18.9748 29.3167 19.0114 29.4138C19.048 29.5108 19.1016 29.5989 19.1691 29.6727C19.2365 29.7466 19.3166 29.8048 19.4045 29.844C19.4925 29.8833 19.5866 29.9027 19.6813 29.9012H21.0278C21.1226 29.9027 21.2167 29.8833 21.3046 29.844C21.3926 29.8048 21.4726 29.7466 21.5401 29.6727C21.6076 29.5989 21.6612 29.5108 21.6978 29.4138C21.7344 29.3167 21.7532 29.2126 21.7532 29.1074C21.7532 29.0022 21.7344 28.898 21.6978 28.801C21.6612 28.7039 21.6076 28.6159 21.5401 28.5421C21.4726 28.4682 21.3926 28.41 21.3046 28.3708C21.2167 28.3315 21.1226 28.3121 21.0278 28.3136H19.6813ZM23.7181 28.3136C23.6233 28.3121 23.5292 28.3315 23.4413 28.3708C23.3534 28.41 23.2733 28.4682 23.2058 28.5421C23.1383 28.6159 23.0847 28.7039 23.0482 28.801C23.0116 28.898 22.9927 29.0022 22.9927 29.1074C22.9927 29.2126 23.0116 29.3167 23.0482 29.4138C23.0847 29.5108 23.1383 29.5989 23.2058 29.6727C23.2733 29.7466 23.3534 29.8048 23.4413 29.844C23.5292 29.8833 23.6233 29.9027 23.7181 29.9012H25.0618C25.1566 29.9027 25.2507 29.8833 25.3386 29.844C25.4266 29.8048 25.5066 29.7466 25.5741 29.6727C25.6416 29.5989 25.6952 29.5108 25.7318 29.4138C25.7683 29.3167 25.7872 29.2126 25.7872 29.1074C25.7872 29.0022 25.7683 28.898 25.7318 28.801C25.6952 28.7039 25.6416 28.6159 25.5741 28.5421C25.5066 28.4682 25.4266 28.41 25.3386 28.3708C25.2507 28.3315 25.1566 28.3121 25.0618 28.3136H23.7181ZM22.4079 9.62494e-05C22.2187 0.00338415 22.0384 0.0897136 21.9065 0.240215C21.7745 0.390717 21.7017 0.593126 21.7039 0.803109V5.26527C21.7039 5.4758 21.7793 5.67765 21.9134 5.82652C22.0475 5.97538 22.2294 6.05906 22.4191 6.05908H25.0981C25.5894 6.05908 25.8664 6.23544 26.0703 6.49009C26.2742 6.74474 26.3944 7.11651 26.3944 7.49785C26.3944 7.8792 26.2742 8.24786 26.0703 8.50252C25.8664 8.75701 25.5894 8.93353 25.0981 8.93353H19.7372C18.8884 8.93353 18.1639 9.31586 17.6979 9.89788C17.2318 10.4797 17.0134 11.2258 17.0134 11.9599C17.0134 12.694 17.2318 13.4368 17.6979 14.0189C18.1639 14.6007 18.8884 14.9832 19.7372 14.9832H21.7039V20.1399C21.7026 20.245 21.7201 20.3494 21.7554 20.447C21.7907 20.5446 21.8432 20.6336 21.9098 20.7085C21.9763 20.7834 22.0556 20.8429 22.143 20.8835C22.2305 20.9241 22.3243 20.9449 22.4191 20.9449C22.5138 20.9449 22.6077 20.9241 22.6951 20.8835C22.7825 20.8429 22.8618 20.7834 22.9284 20.7085C22.9949 20.6336 23.0474 20.5446 23.0827 20.447C23.1181 20.3494 23.1356 20.245 23.1342 20.1399V14.1894C23.1342 13.9789 23.0589 13.777 22.9247 13.6282C22.7906 13.4793 22.6087 13.3956 22.4191 13.3956H19.7372C19.246 13.3956 18.969 13.2192 18.765 12.9646C18.5611 12.7099 18.4438 12.3413 18.4438 11.9599C18.4438 11.5786 18.5611 11.2068 18.765 10.9522C18.969 10.6975 19.246 10.5211 19.7372 10.5211H25.0981C25.9469 10.5211 26.6742 10.1388 27.1403 9.55679C27.6063 8.97477 27.8247 8.23213 27.8247 7.49785C27.8247 6.76374 27.6063 6.01784 27.1403 5.43582C26.6742 4.8538 25.9469 4.47146 25.0981 4.47146H23.1342V0.803109C23.1353 0.697043 23.1173 0.591802 23.0811 0.493609C23.045 0.395417 22.9915 0.306253 22.9238 0.231397C22.8561 0.156542 22.7755 0.0975782 22.6869 0.0578488C22.5983 0.0181194 22.5034 -0.00155763 22.4079 9.62494e-05Z" fill="#373748"/>
</svg>
