<svg height="468pt" viewBox="0 0 468 468" width="468pt" xmlns="http://www.w3.org/2000/svg"><path d="m214 468h-8c-2.207031 0-4-1.792969-4-4s1.792969-4 4-4h8c2.207031 0 4 1.792969 4 4s-1.792969 4-4 4zm0 0" fill="#263238"/><path d="m420 240c0 106.039062-85.960938 192-192 192s-192-85.960938-192-192 85.960938-192 192-192 192 85.960938 192 192zm0 0" fill="#ffd740"/><path d="m228 436c-108.070312 0-196-87.921875-196-196s87.929688-196 196-196c108.078125 0 196 87.921875 196 196s-87.921875 196-196 196zm0-384c-103.664062 0-188 84.335938-188 188s84.335938 188 188 188 188-84.335938 188-188-84.335938-188-188-188zm0 0" fill="#263238"/><path d="m388 240c0 88.367188-71.632812 160-160 160s-160-71.632812-160-160 71.632812-160 160-160 160 71.632812 160 160zm0 0" fill="#ffd740"/><path d="m228 404c-90.433594 0-164-73.566406-164-164s73.566406-164 164-164 164 73.566406 164 164-73.566406 164-164 164zm0-320c-86.015625 0-156 69.984375-156 156s69.984375 156 156 156 156-69.984375 156-156-69.984375-156-156-156zm0 0" fill="#263238"/><path d="m228 351.945312c-28.679688 0-57.359375-10.914062-79.191406-32.753906-43.671875-43.664062-43.671875-114.726562 0-158.390625 43.671875-43.671875 114.71875-43.671875 158.390625 0 6.25 6.246094 6.25 16.375 0 22.625-6.246094 6.246094-16.375 6.246094-22.625 0-31.183594-31.1875-81.949219-31.1875-113.140625 0-31.1875 31.191407-31.1875 81.941407 0 113.140625 31.183594 31.1875 81.949218 31.1875 113.140625 0 11.265625-11.261718 18.761719-25.300781 21.832031-40.566406h-78.40625c-8.832031 0-16-7.167969-16-16s7.167969-16 16-16h96c8.832031 0 16 7.167969 16 16 0 29.910156-11.648438 58.039062-32.808594 79.191406-21.832031 21.839844-50.511718 32.753906-79.191406 32.753906zm0 0" fill="#fff"/><g fill="#263238"><path d="m228 355.945312c-31.015625 0-60.152344-12.050781-82.023438-33.921874-21.878906-21.871094-33.929687-51-33.929687-82.023438s12.050781-60.152344 33.929687-82.023438c21.871094-21.871093 51.007813-33.929687 82.023438-33.929687s60.152344 12.058594 82.023438 33.929687c7.800781 7.800782 7.800781 20.488282 0 28.28125-7.558594 7.558594-20.71875 7.558594-28.28125 0-29.636719-29.625-77.847657-29.625-107.484376 0-29.625 29.628907-29.625 77.847657 0 107.484376 29.628907 29.625 77.839844 29.640624 107.484376 0 9.457031-9.453126 16.167968-21.039063 19.609374-33.742188h-73.351562c-11.023438 0-20-8.96875-20-20s8.976562-20 20-20h96c11.03125 0 20 8.96875 20 20 0 30.984375-12.0625 60.121094-33.976562 82.023438-21.871094 21.871093-51.007813 33.921874-82.023438 33.921874zm0-223.898437c-28.878906 0-56 11.21875-76.367188 31.585937-20.367187 20.359376-31.585937 47.488282-31.585937 76.367188s11.21875 56.007812 31.585937 76.367188c20.359376 20.367187 47.488282 31.578124 76.367188 31.578124s56-11.210937 76.367188-31.578124c20.402343-20.398438 31.632812-47.519532 31.632812-76.367188 0-6.617188-5.382812-12-12-12h-96c-6.617188 0-12 5.382812-12 12s5.382812 12 12 12h78.40625c1.203125 0 2.335938.535156 3.097656 1.472656.761719.925782 1.0625 2.152344.832032 3.320313-3.246094 16.128906-11.175782 30.855469-22.929688 42.605469-32.757812 32.753906-86.046875 32.753906-118.796875 0-32.753906-32.75-32.746094-86.046876 0-118.796876 32.75-32.746093 86.046875-32.753906 118.796875 0 4.53125 4.527344 12.441406 4.527344 16.96875 0 4.679688-4.679687 4.679688-12.289062 0-16.96875-20.375-20.367187-47.496094-31.585937-76.375-31.585937zm0 0"/><path d="m4 244c-2.207031 0-4-1.792969-4-4 0-125.71875 102.28125-228 228-228 2.207031 0 4 1.792969 4 4s-1.792969 4-4 4c-121.3125 0-220 98.695312-220 220 0 2.207031-1.792969 4-4 4zm0 0"/><path d="m252 20h-8c-2.207031 0-4-1.792969-4-4s1.792969-4 4-4h8c2.207031 0 4 1.792969 4 4s-1.792969 4-4 4zm0 0"/><path d="m228 468c-2.207031 0-4-1.792969-4-4s1.792969-4 4-4c121.304688 0 220-98.695312 220-220 0-2.207031 1.792969-4 4-4s4 1.792969 4 4c0 125.71875-102.28125 228-228 228zm0 0"/><path d="m408 24h-32c-2.207031 0-4-1.792969-4-4s1.792969-4 4-4h32c2.207031 0 4 1.792969 4 4s-1.792969 4-4 4zm0 0"/><path d="m392 40c-2.207031 0-4-1.792969-4-4v-32c0-2.207031 1.792969-4 4-4s4 1.792969 4 4v32c0 2.207031-1.792969 4-4 4zm0 0"/><path d="m464 76h-32c-2.207031 0-4-1.792969-4-4s1.792969-4 4-4h32c2.207031 0 4 1.792969 4 4s-1.792969 4-4 4zm0 0"/><path d="m448 92c-2.207031 0-4-1.792969-4-4v-32c0-2.207031 1.792969-4 4-4s4 1.792969 4 4v32c0 2.207031-1.792969 4-4 4zm0 0"/></g></svg>