<svg fill="none" height="100" viewBox="0 0 100 100" width="100" xmlns="http://www.w3.org/2000/svg">
    <path
        d="M50 0C22.3798 0 0 22.3798 0 50C0 77.6202 22.3798 100 50 100C77.6202 100 100 77.6202 100 50C100 22.3798 77.6202 0 50 0ZM50 95.8413C35.9135 95.8413 23.2933 89.4471 14.8798 79.4231C19.1587 77.5721 29.8317 73.726 36.5865 71.7548C37.1154 71.5865 37.2115 71.5625 37.2115 69.1827C37.2115 66.6346 36.9231 64.8317 36.2981 63.5096C35.4567 61.7067 34.4471 58.6538 34.0865 55.9135C33.0769 54.7356 31.7067 52.4279 30.8173 48.0048C30.0481 44.1106 30.4087 42.6923 30.9135 41.3702C30.9615 41.226 31.0337 41.0817 31.0577 40.9375C31.25 40.0481 30.9856 35.2885 30.3125 31.6106C29.8558 29.0865 30.4327 23.726 33.9183 19.2788C36.1058 16.4663 40.3125 13.0288 47.8606 12.5481H52.0673C59.7356 13.0288 63.9423 16.4663 66.1298 19.2788C69.6154 23.726 70.1923 29.0865 69.7115 31.6106C69.0385 35.2885 68.774 40.024 68.9663 40.9375C68.9904 41.0817 69.0625 41.226 69.1106 41.3462C69.6154 42.6683 70 44.0865 69.2067 47.9808C68.3173 52.4038 66.9471 54.7115 65.9375 55.8894C65.5769 58.6298 64.5673 61.6587 63.726 63.4856C62.9327 65.1442 62.1394 67.1154 62.1394 69.0865C62.1394 71.4663 62.2356 71.4904 62.7885 71.6587C69.2067 73.5577 80.2644 77.3798 85.1442 79.375C76.7308 89.4231 64.1106 95.8413 50 95.8413Z"
        fill="black" />
</svg>
